<?xml version="1.0" encoding="UTF-8" standalone="no"?>
<svg xmlns="http://www.w3.org/2000/svg" xmlns:xlink="http://www.w3.org/1999/xlink" viewBox="0 0 300 300" width="300pt" height="300pt">
<path d=" M 283.38 114 C 281.591 112.21 279.669 110.559 277.63 109.06 L 276.88 108.54 C 276.45 108.24 276.03 107.93 275.59 107.64 C 275.15 107.35 274.64 107.04 274.17 106.75 L 273.51 106.34 C 272.92 105.99 272.32 105.66 271.72 105.34 L 271.37 105.15 C 264.275 101.427 256.383 99.478 248.37 99.47 C 235.184 99.459 222.543 94.211 213.228 84.878 C 203.913 75.546 198.687 62.896 198.7 49.71 C 198.736 29.64 186.679 11.524 168.15 3.811 C 149.621 -3.903 128.27 0.306 114.054 14.473 C 99.837 28.641 95.556 49.977 103.206 68.533 C 110.855 87.088 128.93 99.208 149 99.24 C 162.186 99.251 174.827 104.499 184.142 113.832 C 193.457 123.164 198.683 135.814 198.67 149 C 198.659 162.186 193.411 174.827 184.078 184.142 C 174.746 193.457 162.096 198.683 148.91 198.67 C 135.734 198.681 123.095 193.451 113.78 184.133 C 104.464 174.816 99.237 162.176 99.25 149 C 99.25 121.596 77.034 99.38 49.63 99.38 C 22.226 99.38 0.01 121.596 0.01 149 C 0.01 176.404 22.226 198.62 49.63 198.62 C 62.79 198.62 75.411 203.848 84.717 213.153 C 94.022 222.459 99.25 235.08 99.25 248.24 C 99.25 275.697 121.508 297.955 148.965 297.955 C 176.422 297.955 198.68 275.697 198.68 248.24 C 198.68 235.08 203.908 222.459 213.213 213.153 C 222.519 203.848 235.14 198.62 248.3 198.62 C 257.159 198.626 265.857 196.257 273.49 191.76 C 274.15 191.37 274.8 190.96 275.49 190.54 L 275.63 190.45 C 276.23 190.05 276.83 189.63 277.41 189.21 L 277.67 189.03 C 278.19 188.65 278.67 188.24 279.22 187.83 L 279.66 187.49 C 280.14 187.1 280.6 186.69 281.07 186.28 L 281.58 185.84 Q 282.48 185.03 283.35 184.16 L 283.44 184.08 C 285.583 181.928 287.524 179.585 289.24 177.08 Q 289.8 176.27 290.32 175.44 C 302.613 155.846 299.734 130.358 283.38 114 L 283.38 114 Z " fill="rgb(80,76,255)"/>
</svg>