<svg xmlns="http://www.w3.org/2000/svg" width="512" height="512"><path fill="#641E55" d="M127.024-.407c3.805.005 7.611-.008 11.417-.018 7.438-.017 14.875-.018 22.313-.013a11704.294 11704.294 0 0 0 20.772-.005l5.269-.004c16.436-.014 32.872-.009 49.309.003 15.002.01 30.004-.003 45.006-.027 15.444-.024 30.887-.034 46.33-.027 8.655.003 17.31.001 25.964-.017a5068.38 5068.38 0 0 1 22.103.002c3.751.009 7.502.011 11.253-.004 36.98-.141 67.41 8.681 94.115 35.017 5.038 5.11 9.371 10.362 13.125 16.5l1.95 3.062c3.984 6.558 7.158 13.193 9.862 20.375l.842 2.2c5.953 16.571 5.79 32.993 5.753 50.387-.005 3.805.008 7.611.018 11.417.017 7.438.018 14.875.013 22.313a11704.294 11704.294 0 0 0 .005 20.772l.004 5.269c.014 16.436.009 32.872-.003 49.309-.01 15.002.003 30.004.027 45.006.024 15.444.034 30.887.027 46.33-.003 8.655-.001 17.31.017 25.964.014 7.368.015 14.735-.002 22.103-.009 3.751-.011 7.502.004 11.253.141 36.98-8.681 67.41-35.017 94.115-5.11 5.038-10.362 9.371-16.5 13.125l-3.063 1.95c-6.557 3.984-13.192 7.158-20.375 9.862l-2.198.842c-16.572 5.953-32.994 5.79-50.388 5.753-3.805-.005-7.611.008-11.417.018-7.438.017-14.875.018-22.313.013-6.051-.004-12.102-.003-18.153.002l-2.62.003-5.268.004c-16.436.014-32.872.009-49.309-.003-15.002-.01-30.004.003-45.006.027-15.444.024-30.887.034-46.33.027-8.655-.003-17.31-.001-25.964.017-7.368.014-14.735.015-22.103-.002-3.751-.009-7.502-.011-11.253.004-36.98.141-67.41-8.681-94.115-35.017-5.038-5.11-9.371-10.362-13.125-16.5l-1.95-3.063c-3.984-6.557-7.158-13.192-9.863-20.375l-.841-2.198c-5.953-16.572-5.79-32.994-5.753-50.388.005-3.805-.008-7.611-.018-11.417-.017-7.438-.018-14.875-.013-22.313a11704.294 11704.294 0 0 0-.005-20.772l-.004-5.269c-.014-16.436-.009-32.872.003-49.309.01-15.002-.003-30.004-.027-45.006-.024-15.444-.034-30.887-.027-46.33.003-8.655.001-17.31-.017-25.964a5068.38 5068.38 0 0 1 .002-22.103c.009-3.751.011-7.502-.004-11.253C-.658 88.26 8.164 57.83 34.5 31.125 39.61 26.087 44.862 21.754 51 18l3.062-1.95c6.558-3.984 13.193-7.158 20.375-9.863l2.2-.841C93.207-.607 109.63-.444 127.023-.407Z"/><path fill="#FED6D1" d="M129 198h67v92h120v-92h68v233h-68v-92H196v92h-67V198Z"/><path fill="#FDD4D0" d="M368.492 75.746C375.75 79.376 379.758 84.632 383 92c2.198 6.76 2.117 15.24-.563 21.813C377.72 122.819 371.524 127.825 362 131c-10.822.985-18.38-.38-26.813-7.313-6.29-7.729-9.729-14.757-9.496-24.882.882-8.01 5.397-14.515 11.309-19.805 10.232-6.861 19.977-7.961 31.492-3.254ZM272 77c6.403 4.186 10.595 10.785 13 18 .868 10.141-.383 18.461-6.5 26.75-6.037 6.354-13.825 9.587-22.5 10-8.29-.412-15.145-3.087-21.195-8.836-6.07-7.237-8.463-14.815-8.149-24.215 1.194-9.373 7.136-16.436 14.406-22.074 10.09-5.582 20.88-5.087 30.938.375Z"/><path fill="#FDD5D0" d="M167.875 74.75c1.388.726 2.764 1.474 4.125 2.25l3.125 1.563c6.481 5.495 10.326 12.58 11.113 20.98.238 8.465-1.657 15.352-6.738 22.207-6.037 6.354-13.825 9.587-22.5 10-8.675-.413-16.463-3.646-22.5-10-5.593-7.545-7.565-15.465-6.5-24.75 1.27-8.103 6.01-13.619 12-19 8.31-5.454 18.563-7.288 27.875-3.25Z"/></svg>